<svg width="254" height="53" viewBox="0 0 254 53" fill="none" xmlns="http://www.w3.org/2000/svg">
<path d="M121.942 42.45C119.302 42.45 116.947 41.865 114.877 40.695C112.837 39.525 111.247 37.8 110.107 35.52C108.967 33.24 108.397 30.465 108.397 27.195C108.397 23.985 108.997 21.24 110.197 18.96C111.397 16.68 113.107 14.925 115.327 13.695C117.577 12.465 120.217 11.85 123.247 11.85C126.607 11.85 129.322 12.465 131.392 13.695C133.462 14.895 135.067 16.815 136.207 19.455L129.052 22.29C128.662 20.76 127.972 19.65 126.982 18.96C125.992 18.27 124.762 17.925 123.292 17.925C121.822 17.925 120.562 18.285 119.512 19.005C118.462 19.695 117.667 20.73 117.127 22.11C116.587 23.46 116.317 25.14 116.317 27.15C116.317 29.25 116.587 31.005 117.127 32.415C117.697 33.825 118.522 34.875 119.602 35.565C120.712 36.225 122.077 36.555 123.697 36.555C124.567 36.555 125.362 36.45 126.082 36.24C126.802 36.03 127.432 35.73 127.972 35.34C128.512 34.92 128.932 34.41 129.232 33.81C129.532 33.18 129.682 32.445 129.682 31.605V31.155H122.887V25.98H136.252V42H130.987L130.402 35.025L131.662 36.105C131.032 38.145 129.892 39.72 128.242 40.83C126.622 41.91 124.522 42.45 121.942 42.45Z" fill="url(#paint0_linear_61_197)"/>
<path d="M154.192 27.735C154.192 26.685 153.892 25.86 153.292 25.26C152.722 24.63 151.942 24.315 150.952 24.315C149.962 24.315 149.107 24.57 148.387 25.08C147.697 25.56 147.217 26.43 146.947 27.69L140.467 26.16C140.887 24 141.997 22.275 143.797 20.985C145.597 19.695 148.132 19.05 151.402 19.05C153.592 19.05 155.452 19.38 156.982 20.04C158.542 20.67 159.727 21.63 160.537 22.92C161.377 24.18 161.797 25.74 161.797 27.6V35.835C161.797 37.005 162.322 37.59 163.372 37.59C163.912 37.59 164.347 37.53 164.677 37.41L164.227 41.775C163.327 42.195 162.232 42.405 160.942 42.405C159.772 42.405 158.737 42.225 157.837 41.865C156.937 41.475 156.232 40.905 155.722 40.155C155.212 39.375 154.957 38.4 154.957 37.23V36.96L155.812 36.645C155.812 37.935 155.422 39.015 154.642 39.885C153.892 40.755 152.902 41.4 151.672 41.82C150.472 42.24 149.212 42.45 147.892 42.45C146.362 42.45 145.027 42.21 143.887 41.73C142.747 41.25 141.862 40.56 141.232 39.66C140.632 38.73 140.332 37.59 140.332 36.24C140.332 34.62 140.812 33.285 141.772 32.235C142.762 31.155 144.307 30.405 146.407 29.985L154.912 28.23L154.867 32.28L150.547 33.18C149.647 33.36 148.972 33.63 148.522 33.99C148.102 34.32 147.892 34.83 147.892 35.52C147.892 36.18 148.132 36.675 148.612 37.005C149.092 37.335 149.662 37.5 150.322 37.5C150.832 37.5 151.312 37.425 151.762 37.275C152.242 37.125 152.662 36.9 153.022 36.6C153.382 36.27 153.667 35.865 153.877 35.385C154.087 34.905 154.192 34.335 154.192 33.675V27.735ZM167.697 42V19.5H174.537L174.762 23.865C175.482 22.275 176.487 21.075 177.777 20.265C179.097 19.455 180.612 19.05 182.322 19.05C184.002 19.05 185.457 19.425 186.687 20.175C187.917 20.925 188.832 22.035 189.432 23.505C189.912 22.515 190.527 21.69 191.277 21.03C192.057 20.37 192.942 19.875 193.932 19.545C194.922 19.215 195.942 19.05 196.992 19.05C198.492 19.05 199.812 19.35 200.952 19.95C202.092 20.52 202.992 21.405 203.652 22.605C204.342 23.775 204.687 25.245 204.687 27.015V42H197.037V28.77C197.037 27.33 196.752 26.325 196.182 25.755C195.642 25.185 194.907 24.9 193.977 24.9C193.227 24.9 192.537 25.095 191.907 25.485C191.307 25.845 190.842 26.4 190.512 27.15C190.182 27.9 190.017 28.845 190.017 29.985V42H182.367V28.77C182.367 27.33 182.082 26.325 181.512 25.755C180.942 25.185 180.207 24.9 179.307 24.9C178.617 24.9 177.957 25.08 177.327 25.44C176.727 25.8 176.247 26.37 175.887 27.15C175.527 27.9 175.347 28.89 175.347 30.12V42H167.697ZM221.04 42.45C218.55 42.45 216.39 41.985 214.56 41.055C212.76 40.125 211.365 38.79 210.375 37.05C209.385 35.31 208.89 33.21 208.89 30.75C208.89 28.29 209.385 26.19 210.375 24.45C211.365 22.71 212.745 21.375 214.515 20.445C216.315 19.515 218.37 19.05 220.68 19.05C223.05 19.05 225.06 19.515 226.71 20.445C228.39 21.345 229.665 22.605 230.535 24.225C231.405 25.815 231.84 27.645 231.84 29.715C231.84 30.255 231.825 30.795 231.795 31.335C231.765 31.875 231.72 32.325 231.66 32.685H213.84V28.59H228.285L224.64 29.985C224.64 28.185 224.31 26.805 223.65 25.845C223.02 24.885 222.03 24.405 220.68 24.405C219.72 24.405 218.895 24.63 218.205 25.08C217.545 25.53 217.035 26.235 216.675 27.195C216.345 28.155 216.18 29.385 216.18 30.885C216.18 32.355 216.375 33.555 216.765 34.485C217.155 35.385 217.71 36.045 218.43 36.465C219.15 36.855 220.02 37.05 221.04 37.05C222.18 37.05 223.08 36.825 223.74 36.375C224.43 35.925 224.94 35.295 225.27 34.485L231.39 36.51C230.97 37.8 230.235 38.895 229.185 39.795C228.165 40.665 226.935 41.325 225.495 41.775C224.085 42.225 222.6 42.45 221.04 42.45ZM236.119 42V19.5H242.869L243.184 24.36C243.754 22.68 244.594 21.375 245.704 20.445C246.844 19.515 248.284 19.05 250.024 19.05C250.594 19.05 251.074 19.095 251.464 19.185C251.884 19.275 252.214 19.395 252.454 19.545L251.689 25.845C251.389 25.725 250.999 25.635 250.519 25.575C250.069 25.485 249.514 25.44 248.854 25.44C247.954 25.44 247.114 25.635 246.334 26.025C245.554 26.415 244.924 27 244.444 27.78C243.994 28.53 243.769 29.49 243.769 30.66V42H236.119Z" fill="#0B0223"/>
<g clip-path="url(#clip0_61_197)">
<path fill-rule="evenodd" clip-rule="evenodd" d="M19.9473 6.12053L66.6667 6C76.806 6 86.0264 15.6874 86.0264 25.887C86.0264 36.0264 77.2128 45.8343 66.0188 45.8343C54.8249 45.8343 48.6328 39.8079 47.1262 31.1751L38.9454 30.8889C37.4388 39.5217 29.5593 46.0151 19.9322 46.0151C10.3202 46 0 36.8399 0 26.7006C0 16.5009 9.79284 6.12053 19.9473 6.12053Z" fill="url(#paint1_linear_61_197)"/>
<path fill-rule="evenodd" clip-rule="evenodd" d="M16.7533 16.7871H23.081V23.0997H29.4539V29.4274H23.081V35.74H16.7533V29.4274H10.4407V23.0997H16.7533V16.7871Z" fill="white"/>
<path fill-rule="evenodd" clip-rule="evenodd" d="M72.4671 23.0999C70.7345 23.0999 69.3334 24.4859 69.3334 26.2938C69.3334 28.0264 70.7194 29.4275 72.4671 29.4275C74.1997 29.4275 75.6611 28.0415 75.6611 26.2938C75.6611 24.501 74.2147 23.0999 72.4671 23.0999Z" fill="white"/>
<path fill-rule="evenodd" clip-rule="evenodd" d="M66.1544 16.7871C64.4218 16.7871 62.9604 18.1732 62.9604 19.9208C62.9604 21.7137 64.4068 23.1148 66.1544 23.1148C67.887 23.1148 69.3484 21.7287 69.3484 19.9208C69.3333 18.1732 67.887 16.7871 66.1544 16.7871Z" fill="white"/>
<path fill-rule="evenodd" clip-rule="evenodd" d="M59.8267 23.0999C58.0941 23.0999 56.6328 24.4859 56.6328 26.2938C56.6328 28.0264 58.0791 29.4275 59.8267 29.4275C61.5593 29.4275 62.9604 28.0415 62.9604 26.2938C62.9604 24.501 61.5744 23.0999 59.8267 23.0999Z" fill="white"/>
<path fill-rule="evenodd" clip-rule="evenodd" d="M66.1544 29.4275C64.4218 29.4275 62.9604 30.8738 62.9604 32.6215C62.9604 34.3691 64.4068 35.7552 66.1544 35.7552C67.887 35.7552 69.3484 34.3691 69.3484 32.6215C69.3333 30.8738 67.887 29.4275 66.1544 29.4275Z" fill="white"/>
</g>
<defs>
<linearGradient id="paint0_linear_61_197" x1="125.349" y1="26.4929" x2="235.316" y2="26.4929" gradientUnits="userSpaceOnUse">
<stop stop-color="#FF42A5"/>
<stop offset="1" stop-color="#FF42A5"/>
</linearGradient>
<linearGradient id="paint1_linear_61_197" x1="11.2989" y1="26.0022" x2="75.6531" y2="26.0022" gradientUnits="userSpaceOnUse">
<stop stop-color="#FF42A5"/>
<stop offset="1" stop-color="#FF42A5"/>
</linearGradient>
<clipPath id="clip0_61_197">
<rect width="86.0414" height="40" fill="white" transform="translate(0 6)"/>
</clipPath>
</defs>
</svg>
